<svg width="150" height="150" viewBox="0 0 150 150" fill="none" xmlns="http://www.w3.org/2000/svg">
<circle cx="75" cy="75" r="75" fill="black"/>
<path d="M61.9 111.8C58.6333 111.8 56.1 111.167 54.3 109.9C52.5667 108.633 51.7 106.933 51.7 104.8C51.7 102.933 52.3333 101.5 53.6 100.5C54.9333 99.5 56.4667 99 58.2 99C59.9333 99 61.4667 99.4 62.8 100.2C64.1333 100.933 65.3667 102.233 66.5 104.1L68.3 107.2C68.6333 107.667 69.0333 107.9 69.5 107.9C70.0333 107.9 70.4 107.6 70.6 107C71 105.667 71.2667 103.733 71.4 101.2C71.6 98.6 71.7 95.4667 71.7 91.8C71.7 87.6 71.6 82.2 71.4 75.6C71.2 69 71 60.8667 70.8 51.2C70.8 48.3333 69.7333 46.5333 67.6 45.8L65.3 45V44H91.5V45L89.3 45.8C88.1 46.2667 87.2667 46.9 86.8 47.7C86.4 48.4333 86.2 49.5 86.2 50.9V70.7C86.2 77.2333 85.9 82.6333 85.3 86.9C84.7 91.1667 83.7333 94.8667 82.4 98C80.7333 102.467 78 105.9 74.2 108.3C70.4667 110.633 66.3667 111.8 61.9 111.8Z" fill="white"/>
<circle cx="94" cy="103" r="5" fill="#2DD4BF"/>
</svg>
