<svg width="363" height="172" viewBox="0 0 363 172" fill="none" xmlns="http://www.w3.org/2000/svg">
<g clip-path="url(#clip0_170_8)">
<mask id="mask0_170_8" style="mask-type:alpha" maskUnits="userSpaceOnUse" x="-57" y="-3" width="420" height="175">
<path d="M363 -3H-57V172H363V-3Z" fill="url(#paint0_radial_170_8)"/>
</mask>
<g mask="url(#mask0_170_8)">
<mask id="mask1_170_8" style="mask-type:luminance" maskUnits="userSpaceOnUse" x="-22" y="-3" width="35" height="35">
<path d="M-22 -3H13V32H-22V-3Z" fill="#fff"/>
</mask>
<g mask="url(#mask1_170_8)">
<path d="M-22 -3V-4H-23V-3H-22ZM-22 -2H13V-4H-22V-2ZM-21 32V-3H-23V32H-21Z" fill="#27272A"/>
</g>
<mask id="mask2_170_8" style="mask-type:luminance" maskUnits="userSpaceOnUse" x="13" y="-3" width="35" height="35">
<path d="M13 -3H48V32H13V-3Z" fill="#fff"/>
</mask>
<g mask="url(#mask2_170_8)">
<path d="M13 -3V-4H12V-3H13ZM13 -2H48V-4H13V-2ZM14 32V-3H12V32H14Z" fill="#27272A"/>
</g>
<mask id="mask3_170_8" style="mask-type:luminance" maskUnits="userSpaceOnUse" x="48" y="-3" width="35" height="35">
<path d="M48 -3H83V32H48V-3Z" fill="#fff"/>
</mask>
<g mask="url(#mask3_170_8)">
<path d="M48 -3V-4H47V-3H48ZM48 -2H83V-4H48V-2ZM49 32V-3H47V32H49Z" fill="#27272A"/>
</g>
<mask id="mask4_170_8" style="mask-type:luminance" maskUnits="userSpaceOnUse" x="83" y="-3" width="35" height="35">
<path d="M83 -3H118V32H83V-3Z" fill="#fff"/>
</mask>
<g mask="url(#mask4_170_8)">
<path d="M83 -3V-4H82V-3H83ZM83 -2H118V-4H83V-2ZM84 32V-3H82V32H84Z" fill="#27272A"/>
</g>
<mask id="mask5_170_8" style="mask-type:luminance" maskUnits="userSpaceOnUse" x="118" y="-3" width="35" height="35">
<path d="M118 -3H153V32H118V-3Z" fill="#fff"/>
</mask>
<g mask="url(#mask5_170_8)">
<path d="M118 -3V-4H117V-3H118ZM118 -2H153V-4H118V-2ZM119 32V-3H117V32H119Z" fill="#27272A"/>
</g>
<mask id="mask6_170_8" style="mask-type:luminance" maskUnits="userSpaceOnUse" x="153" y="-3" width="35" height="35">
<path d="M153 -3H188V32H153V-3Z" fill="#fff"/>
</mask>
<g mask="url(#mask6_170_8)">
<path d="M153 -3V-4H152V-3H153ZM153 -2H188V-4H153V-2ZM154 32V-3H152V32H154Z" fill="#27272A"/>
</g>
<path d="M188 -3H223V32H188V-3Z" fill="#3F3F46" fill-opacity="0.13"/>
<mask id="mask7_170_8" style="mask-type:luminance" maskUnits="userSpaceOnUse" x="188" y="-3" width="35" height="35">
<path d="M188 -3H223V32H188V-3Z" fill="#fff"/>
</mask>
<g mask="url(#mask7_170_8)">
<path d="M188 -3V-4H187V-3H188ZM188 -2H223V-4H188V-2ZM189 32V-3H187V32H189Z" fill="#27272A"/>
</g>
<mask id="mask8_170_8" style="mask-type:luminance" maskUnits="userSpaceOnUse" x="223" y="-3" width="35" height="35">
<path d="M223 -3H258V32H223V-3Z" fill="#fff"/>
</mask>
<g mask="url(#mask8_170_8)">
<path d="M223 -3V-4H222V-3H223ZM223 -2H258V-4H223V-2ZM224 32V-3H222V32H224Z" fill="#27272A"/>
</g>
<mask id="mask9_170_8" style="mask-type:luminance" maskUnits="userSpaceOnUse" x="258" y="-3" width="35" height="35">
<path d="M258 -3H293V32H258V-3Z" fill="#fff"/>
</mask>
<g mask="url(#mask9_170_8)">
<path d="M258 -3V-4H257V-3H258ZM258 -2H293V-4H258V-2ZM259 32V-3H257V32H259Z" fill="#27272A"/>
</g>
<mask id="mask10_170_8" style="mask-type:luminance" maskUnits="userSpaceOnUse" x="293" y="-3" width="35" height="35">
<path d="M293 -3H328V32H293V-3Z" fill="#fff"/>
</mask>
<g mask="url(#mask10_170_8)">
<path d="M293 -3V-4H292V-3H293ZM293 -2H328V-4H293V-2ZM294 32V-3H292V32H294Z" fill="#27272A"/>
</g>
<mask id="mask11_170_8" style="mask-type:luminance" maskUnits="userSpaceOnUse" x="328" y="-3" width="35" height="35">
<path d="M328 -3H363V32H328V-3Z" fill="#fff"/>
</mask>
<g mask="url(#mask11_170_8)">
<path d="M328 -3V-4H327V-3H328ZM363 -3H364V-4H363V-3ZM328 -2H363V-4H328V-2ZM362 -3V32H364V-3H362ZM329 32V-3H327V32H329Z" fill="#27272A"/>
</g>
<mask id="mask12_170_8" style="mask-type:luminance" maskUnits="userSpaceOnUse" x="-22" y="32" width="35" height="35">
<path d="M-22 32H13V67H-22V32Z" fill="#fff"/>
</mask>
<g mask="url(#mask12_170_8)">
<path d="M-22 32V31H-23V32H-22ZM-22 33H13V31H-22V33ZM-21 67V32H-23V67H-21Z" fill="#27272A"/>
</g>
<mask id="mask13_170_8" style="mask-type:luminance" maskUnits="userSpaceOnUse" x="13" y="32" width="35" height="35">
<path d="M13 32H48V67H13V32Z" fill="#fff"/>
</mask>
<g mask="url(#mask13_170_8)">
<path d="M13 32V31H12V32H13ZM13 33H48V31H13V33ZM14 67V32H12V67H14Z" fill="#27272A"/>
</g>
<mask id="mask14_170_8" style="mask-type:luminance" maskUnits="userSpaceOnUse" x="48" y="32" width="35" height="35">
<path d="M48 32H83V67H48V32Z" fill="#fff"/>
</mask>
<g mask="url(#mask14_170_8)">
<path d="M48 32V31H47V32H48ZM48 33H83V31H48V33ZM49 67V32H47V67H49Z" fill="#27272A"/>
</g>
<mask id="mask15_170_8" style="mask-type:luminance" maskUnits="userSpaceOnUse" x="83" y="32" width="35" height="35">
<path d="M83 32H118V67H83V32Z" fill="#fff"/>
</mask>
<g mask="url(#mask15_170_8)">
<path d="M83 32V31H82V32H83ZM83 33H118V31H83V33ZM84 67V32H82V67H84Z" fill="#27272A"/>
</g>
<path d="M118 32H153V67H118V32Z" fill="#3F3F46" fill-opacity="0.1"/>
<mask id="mask16_170_8" style="mask-type:luminance" maskUnits="userSpaceOnUse" x="118" y="32" width="35" height="35">
<path d="M118 32H153V67H118V32Z" fill="#fff"/>
</mask>
<g mask="url(#mask16_170_8)">
<path d="M118 32V31H117V32H118ZM118 33H153V31H118V33ZM119 67V32H117V67H119Z" fill="#27272A"/>
</g>
<mask id="mask17_170_8" style="mask-type:luminance" maskUnits="userSpaceOnUse" x="153" y="32" width="35" height="35">
<path d="M153 32H188V67H153V32Z" fill="#fff"/>
</mask>
<g mask="url(#mask17_170_8)">
<path d="M153 32V31H152V32H153ZM153 33H188V31H153V33ZM154 67V32H152V67H154Z" fill="#27272A"/>
</g>
<mask id="mask18_170_8" style="mask-type:luminance" maskUnits="userSpaceOnUse" x="188" y="32" width="35" height="35">
<path d="M188 32H223V67H188V32Z" fill="#fff"/>
</mask>
<g mask="url(#mask18_170_8)">
<path d="M188 32V31H187V32H188ZM188 33H223V31H188V33ZM189 67V32H187V67H189Z" fill="#27272A"/>
</g>
<mask id="mask19_170_8" style="mask-type:luminance" maskUnits="userSpaceOnUse" x="223" y="32" width="35" height="35">
<path d="M223 32H258V67H223V32Z" fill="#fff"/>
</mask>
<g mask="url(#mask19_170_8)">
<path d="M223 32V31H222V32H223ZM223 33H258V31H223V33ZM224 67V32H222V67H224Z" fill="#27272A"/>
</g>
<mask id="mask20_170_8" style="mask-type:luminance" maskUnits="userSpaceOnUse" x="258" y="32" width="35" height="35">
<path d="M258 32H293V67H258V32Z" fill="#fff"/>
</mask>
<g mask="url(#mask20_170_8)">
<path d="M258 32V31H257V32H258ZM258 33H293V31H258V33ZM259 67V32H257V67H259Z" fill="#27272A"/>
</g>
<mask id="mask21_170_8" style="mask-type:luminance" maskUnits="userSpaceOnUse" x="293" y="32" width="35" height="35">
<path d="M293 32H328V67H293V32Z" fill="#fff"/>
</mask>
<g mask="url(#mask21_170_8)">
<path d="M293 32V31H292V32H293ZM293 33H328V31H293V33ZM294 67V32H292V67H294Z" fill="#27272A"/>
</g>
<mask id="mask22_170_8" style="mask-type:luminance" maskUnits="userSpaceOnUse" x="328" y="32" width="35" height="35">
<path d="M328 32H363V67H328V32Z" fill="#fff"/>
</mask>
<g mask="url(#mask22_170_8)">
<path d="M328 32V31H327V32H328ZM363 32H364V31H363V32ZM328 33H363V31H328V33ZM362 32V67H364V32H362ZM329 67V32H327V67H329Z" fill="#27272A"/>
</g>
<mask id="mask23_170_8" style="mask-type:luminance" maskUnits="userSpaceOnUse" x="-22" y="67" width="35" height="35">
<path d="M-22 67H13V102H-22V67Z" fill="#fff"/>
</mask>
<g mask="url(#mask23_170_8)">
<path d="M-22 67V66H-23V67H-22ZM-22 68H13V66H-22V68ZM-21 102V67H-23V102H-21Z" fill="#27272A"/>
</g>
<mask id="mask24_170_8" style="mask-type:luminance" maskUnits="userSpaceOnUse" x="13" y="67" width="35" height="35">
<path d="M13 67H48V102H13V67Z" fill="#fff"/>
</mask>
<g mask="url(#mask24_170_8)">
<path d="M13 67V66H12V67H13ZM13 68H48V66H13V68ZM14 102V67H12V102H14Z" fill="#27272A"/>
</g>
<mask id="mask25_170_8" style="mask-type:luminance" maskUnits="userSpaceOnUse" x="48" y="67" width="35" height="35">
<path d="M48 67H83V102H48V67Z" fill="#fff"/>
</mask>
<g mask="url(#mask25_170_8)">
<path d="M48 67V66H47V67H48ZM48 68H83V66H48V68ZM49 102V67H47V102H49Z" fill="#27272A"/>
</g>
<mask id="mask26_170_8" style="mask-type:luminance" maskUnits="userSpaceOnUse" x="83" y="67" width="35" height="35">
<path d="M83 67H118V102H83V67Z" fill="#fff"/>
</mask>
<g mask="url(#mask26_170_8)">
<path d="M83 67V66H82V67H83ZM83 68H118V66H83V68ZM84 102V67H82V102H84Z" fill="#27272A"/>
</g>
<mask id="mask27_170_8" style="mask-type:luminance" maskUnits="userSpaceOnUse" x="118" y="67" width="35" height="35">
<path d="M118 67H153V102H118V67Z" fill="#fff"/>
</mask>
<g mask="url(#mask27_170_8)">
<path d="M118 67V66H117V67H118ZM118 68H153V66H118V68ZM119 102V67H117V102H119Z" fill="#27272A"/>
</g>
<mask id="mask28_170_8" style="mask-type:luminance" maskUnits="userSpaceOnUse" x="153" y="67" width="35" height="35">
<path d="M153 67H188V102H153V67Z" fill="#fff"/>
</mask>
<g mask="url(#mask28_170_8)">
<path d="M153 67V66H152V67H153ZM153 68H188V66H153V68ZM154 102V67H152V102H154Z" fill="#27272A"/>
</g>
<path d="M188 67H223V102H188V67Z" fill="#3F3F46" fill-opacity="0.13"/>
<mask id="mask29_170_8" style="mask-type:luminance" maskUnits="userSpaceOnUse" x="188" y="67" width="35" height="35">
<path d="M188 67H223V102H188V67Z" fill="#fff"/>
</mask>
<g mask="url(#mask29_170_8)">
<path d="M188 67V66H187V67H188ZM188 68H223V66H188V68ZM189 102V67H187V102H189Z" fill="#27272A"/>
</g>
<mask id="mask30_170_8" style="mask-type:luminance" maskUnits="userSpaceOnUse" x="223" y="67" width="35" height="35">
<path d="M223 67H258V102H223V67Z" fill="#fff"/>
</mask>
<g mask="url(#mask30_170_8)">
<path d="M223 67V66H222V67H223ZM223 68H258V66H223V68ZM224 102V67H222V102H224Z" fill="#27272A"/>
</g>
<mask id="mask31_170_8" style="mask-type:luminance" maskUnits="userSpaceOnUse" x="258" y="67" width="35" height="35">
<path d="M258 67H293V102H258V67Z" fill="#fff"/>
</mask>
<g mask="url(#mask31_170_8)">
<path d="M258 67V66H257V67H258ZM258 68H293V66H258V68ZM259 102V67H257V102H259Z" fill="#27272A"/>
</g>
<mask id="mask32_170_8" style="mask-type:luminance" maskUnits="userSpaceOnUse" x="293" y="67" width="35" height="35">
<path d="M293 67H328V102H293V67Z" fill="#fff"/>
</mask>
<g mask="url(#mask32_170_8)">
<path d="M293 67V66H292V67H293ZM293 68H328V66H293V68ZM294 102V67H292V102H294Z" fill="#27272A"/>
</g>
<mask id="mask33_170_8" style="mask-type:luminance" maskUnits="userSpaceOnUse" x="328" y="67" width="35" height="35">
<path d="M328 67H363V102H328V67Z" fill="#fff"/>
</mask>
<g mask="url(#mask33_170_8)">
<path d="M328 67V66H327V67H328ZM363 67H364V66H363V67ZM328 68H363V66H328V68ZM362 67V102H364V67H362ZM329 102V67H327V102H329Z" fill="#27272A"/>
</g>
<mask id="mask34_170_8" style="mask-type:luminance" maskUnits="userSpaceOnUse" x="-22" y="102" width="35" height="35">
<path d="M-22 102H13V137H-22V102Z" fill="#fff"/>
</mask>
<g mask="url(#mask34_170_8)">
<path d="M-22 102V101H-23V102H-22ZM-22 103H13V101H-22V103ZM-21 137V102H-23V137H-21Z" fill="#27272A"/>
</g>
<mask id="mask35_170_8" style="mask-type:luminance" maskUnits="userSpaceOnUse" x="13" y="102" width="35" height="35">
<path d="M13 102H48V137H13V102Z" fill="#fff"/>
</mask>
<g mask="url(#mask35_170_8)">
<path d="M13 102V101H12V102H13ZM13 103H48V101H13V103ZM14 137V102H12V137H14Z" fill="#27272A"/>
</g>
<mask id="mask36_170_8" style="mask-type:luminance" maskUnits="userSpaceOnUse" x="48" y="102" width="35" height="35">
<path d="M48 102H83V137H48V102Z" fill="#fff"/>
</mask>
<g mask="url(#mask36_170_8)">
<path d="M48 102V101H47V102H48ZM48 103H83V101H48V103ZM49 137V102H47V137H49Z" fill="#27272A"/>
</g>
<mask id="mask37_170_8" style="mask-type:luminance" maskUnits="userSpaceOnUse" x="83" y="102" width="35" height="35">
<path d="M83 102H118V137H83V102Z" fill="#fff"/>
</mask>
<g mask="url(#mask37_170_8)">
<path d="M83 102V101H82V102H83ZM83 103H118V101H83V103ZM84 137V102H82V137H84Z" fill="#27272A"/>
</g>
<mask id="mask38_170_8" style="mask-type:luminance" maskUnits="userSpaceOnUse" x="118" y="102" width="35" height="35">
<path d="M118 102H153V137H118V102Z" fill="#fff"/>
</mask>
<g mask="url(#mask38_170_8)">
<path d="M118 102V101H117V102H118ZM118 103H153V101H118V103ZM119 137V102H117V137H119Z" fill="#27272A"/>
</g>
<mask id="mask39_170_8" style="mask-type:luminance" maskUnits="userSpaceOnUse" x="153" y="102" width="35" height="35">
<path d="M153 102H188V137H153V102Z" fill="#fff"/>
</mask>
<g mask="url(#mask39_170_8)">
<path d="M153 102V101H152V102H153ZM153 103H188V101H153V103ZM154 137V102H152V137H154Z" fill="#27272A"/>
</g>
<mask id="mask40_170_8" style="mask-type:luminance" maskUnits="userSpaceOnUse" x="188" y="102" width="35" height="35">
<path d="M188 102H223V137H188V102Z" fill="#fff"/>
</mask>
<g mask="url(#mask40_170_8)">
<path d="M188 102V101H187V102H188ZM188 103H223V101H188V103ZM189 137V102H187V137H189Z" fill="#27272A"/>
</g>
<mask id="mask41_170_8" style="mask-type:luminance" maskUnits="userSpaceOnUse" x="223" y="102" width="35" height="35">
<path d="M223 102H258V137H223V102Z" fill="#fff"/>
</mask>
<g mask="url(#mask41_170_8)">
<path d="M223 102V101H222V102H223ZM223 103H258V101H223V103ZM224 137V102H222V137H224Z" fill="#27272A"/>
</g>
<mask id="mask42_170_8" style="mask-type:luminance" maskUnits="userSpaceOnUse" x="258" y="102" width="35" height="35">
<path d="M258 102H293V137H258V102Z" fill="#fff"/>
</mask>
<g mask="url(#mask42_170_8)">
<path d="M258 102V101H257V102H258ZM258 103H293V101H258V103ZM259 137V102H257V137H259Z" fill="#27272A"/>
</g>
<mask id="mask43_170_8" style="mask-type:luminance" maskUnits="userSpaceOnUse" x="293" y="102" width="35" height="35">
<path d="M293 102H328V137H293V102Z" fill="#fff"/>
</mask>
<g mask="url(#mask43_170_8)">
<path d="M293 102V101H292V102H293ZM293 103H328V101H293V103ZM294 137V102H292V137H294Z" fill="#27272A"/>
</g>
<mask id="mask44_170_8" style="mask-type:luminance" maskUnits="userSpaceOnUse" x="328" y="102" width="35" height="35">
<path d="M328 102H363V137H328V102Z" fill="#fff"/>
</mask>
<g mask="url(#mask44_170_8)">
<path d="M328 102V101H327V102H328ZM363 102H364V101H363V102ZM328 103H363V101H328V103ZM362 102V137H364V102H362ZM329 137V102H327V137H329Z" fill="#27272A"/>
</g>
<mask id="mask45_170_8" style="mask-type:luminance" maskUnits="userSpaceOnUse" x="-22" y="137" width="35" height="35">
<path d="M-22 137H13V172H-22V137Z" fill="#fff"/>
</mask>
<g mask="url(#mask45_170_8)">
<path d="M-22 137V136H-23V137H-22ZM-22 138H13V136H-22V138ZM-21 172V137H-23V172H-21Z" fill="#27272A"/>
</g>
<mask id="mask46_170_8" style="mask-type:luminance" maskUnits="userSpaceOnUse" x="13" y="137" width="35" height="35">
<path d="M13 137H48V172H13V137Z" fill="#fff"/>
</mask>
<g mask="url(#mask46_170_8)">
<path d="M13 137V136H12V137H13ZM13 138H48V136H13V138ZM14 172V137H12V172H14Z" fill="#27272A"/>
</g>
<mask id="mask47_170_8" style="mask-type:luminance" maskUnits="userSpaceOnUse" x="48" y="137" width="35" height="35">
<path d="M48 137H83V172H48V137Z" fill="#fff"/>
</mask>
<g mask="url(#mask47_170_8)">
<path d="M48 137V136H47V137H48ZM48 138H83V136H48V138ZM49 172V137H47V172H49Z" fill="#27272A"/>
</g>
<mask id="mask48_170_8" style="mask-type:luminance" maskUnits="userSpaceOnUse" x="83" y="137" width="35" height="35">
<path d="M83 137H118V172H83V137Z" fill="#fff"/>
</mask>
<g mask="url(#mask48_170_8)">
<path d="M83 137V136H82V137H83ZM83 138H118V136H83V138ZM84 172V137H82V172H84Z" fill="#27272A"/>
</g>
<mask id="mask49_170_8" style="mask-type:luminance" maskUnits="userSpaceOnUse" x="118" y="137" width="35" height="35">
<path d="M118 137H153V172H118V137Z" fill="#fff"/>
</mask>
<g mask="url(#mask49_170_8)">
<path d="M118 137V136H117V137H118ZM118 138H153V136H118V138ZM119 172V137H117V172H119Z" fill="#27272A"/>
</g>
<mask id="mask50_170_8" style="mask-type:luminance" maskUnits="userSpaceOnUse" x="153" y="137" width="35" height="35">
<path d="M153 137H188V172H153V137Z" fill="#fff"/>
</mask>
<g mask="url(#mask50_170_8)">
<path d="M153 137V136H152V137H153ZM153 138H188V136H153V138ZM154 172V137H152V172H154Z" fill="#27272A"/>
</g>
<mask id="mask51_170_8" style="mask-type:luminance" maskUnits="userSpaceOnUse" x="188" y="137" width="35" height="35">
<path d="M188 137H223V172H188V137Z" fill="#fff"/>
</mask>
<g mask="url(#mask51_170_8)">
<path d="M188 137V136H187V137H188ZM188 138H223V136H188V138ZM189 172V137H187V172H189Z" fill="#27272A"/>
</g>
<mask id="mask52_170_8" style="mask-type:luminance" maskUnits="userSpaceOnUse" x="223" y="137" width="35" height="35">
<path d="M223 137H258V172H223V137Z" fill="#fff"/>
</mask>
<g mask="url(#mask52_170_8)">
<path d="M223 137V136H222V137H223ZM223 138H258V136H223V138ZM224 172V137H222V172H224Z" fill="#27272A"/>
</g>
<mask id="mask53_170_8" style="mask-type:luminance" maskUnits="userSpaceOnUse" x="258" y="137" width="35" height="35">
<path d="M258 137H293V172H258V137Z" fill="#fff"/>
</mask>
<g mask="url(#mask53_170_8)">
<path d="M258 137V136H257V137H258ZM258 138H293V136H258V138ZM259 172V137H257V172H259Z" fill="#27272A"/>
</g>
<mask id="mask54_170_8" style="mask-type:luminance" maskUnits="userSpaceOnUse" x="293" y="137" width="35" height="35">
<path d="M293 137H328V172H293V137Z" fill="#fff"/>
</mask>
<g mask="url(#mask54_170_8)">
<path d="M293 137V136H292V137H293ZM293 138H328V136H293V138ZM294 172V137H292V172H294Z" fill="#27272A"/>
</g>
<mask id="mask55_170_8" style="mask-type:luminance" maskUnits="userSpaceOnUse" x="328" y="137" width="35" height="35">
<path d="M328 137H363V172H328V137Z" fill="#fff"/>
</mask>
<g mask="url(#mask55_170_8)">
<path d="M328 137V136H327V137H328ZM363 137H364V136H363V137ZM328 138H363V136H328V138ZM362 137V172H364V137H362ZM329 172V137H327V172H329Z" fill="#27272A"/>
</g>
</g>
<path d="M183 32H83V33H183V32Z" fill="url(#paint1_radial_170_8)"/>
<path d="M142 67H42V68H142V67Z" fill="url(#paint2_radial_170_8)"/>
<path d="M119 5H118V97H119V5Z" fill="url(#paint3_radial_170_8)"/>
</g>
<defs>
<radialGradient id="paint0_radial_170_8" cx="0" cy="0" r="1" gradientUnits="userSpaceOnUse" gradientTransform="translate(153 55.5) rotate(90) scale(57.5 111.755)">
<stop stop-color="#18181B"/>
<stop offset="1" stop-color="#18181B" stop-opacity="0"/>
</radialGradient>
<radialGradient id="paint1_radial_170_8" cx="0" cy="0" r="1" gradientUnits="userSpaceOnUse" gradientTransform="translate(133 32.5) rotate(90) scale(0.5 50)">
<stop/>
<stop offset="1" stop-color="#6366F1" stop-opacity="0"/>
</radialGradient>
<radialGradient id="paint2_radial_170_8" cx="0" cy="0" r="1" gradientUnits="userSpaceOnUse" gradientTransform="translate(92 67.5) rotate(90) scale(0.5 50)">
<stop/>
<stop offset="1" stop-color="#6366F1" stop-opacity="0"/>
</radialGradient>
<radialGradient id="paint3_radial_170_8" cx="0" cy="0" r="1" gradientUnits="userSpaceOnUse" gradientTransform="translate(118.5 51) rotate(90) scale(46 0.5)">
<stop/>
<stop offset="1" stop-color="#6366F1" stop-opacity="0"/>
</radialGradient>
<clipPath id="clip0_170_8">
<rect width="363" height="172" fill="#fff"/>
</clipPath>
</defs>
</svg>
