<svg id="Capa_1" enable-background="new 0 0 512 512" height="512" viewBox="0 0 512 512" width="512" xmlns="http://www.w3.org/2000/svg"><g><path d="m510.507 284.678s-27.32-84.143-27.326-84.158l-54.212-166.905c-2.934-8.702-10.746-14.306-19.922-14.306-.038 0-.079.001-.118.001-9.177.048-16.94 5.708-19.78 14.429l-51.569 158.767h-163.066l-51.665-158.775c-2.838-8.713-10.601-14.373-19.78-14.421-.038 0-.078-.001-.118-.001-9.176 0-16.987 5.605-19.964 14.435 0 0-54.078 166.796-54.079 166.801l-27.415 84.134c-4.06 12.506.346 26.098 10.97 33.824 0 0 236.687 171.97 236.688 171.971 2.328 1.691 5.312 2.474 8.168 2.144 1.951-.226 3.892-.98 5.495-2.14l236.728-171.978c10.619-7.723 15.025-21.315 10.965-33.822zm-62.176-68.937-160.886 206.144 67.017-206.143h93.869zm-192.338 227.733-5.832-17.965-68.096-209.767h147.964zm-98.359-227.733 66.923 206.153-160.799-206.153zm251.446-168.145 47.067 144.909h-94.136zm-306.156-.004 47.154 144.913h-94.136zm-76.8 252.116c-2.458-1.788-3.475-4.945-2.534-7.842l20.649-63.369 30.059 38.538 121.828 156.191zm459.756-.004-169.978 123.485 48.211-61.772 103.727-132.905 20.565 63.342c.945 2.909-.072 6.065-2.525 7.85z"/></g></svg>